# Tiled2Unity generated file. Do not modify by hand.
# Wavefront file for 'zoneBoss_mesh_0009.obj'

# Vertices (Count = 100)
v -208 -160 0
v -224 -160 0
v -224 -144 0
v -208 -144 0
v -224 -160 0
v -240 -160 0
v -240 -144 0
v -224 -144 0
v -208 -176 0
v -224 -176 0
v -224 -160 0
v -208 -160 0
v -224 -176 0
v -240 -176 0
v -240 -160 0
v -224 -160 0
v -208 -496 0
v -224 -496 0
v -224 -480 0
v -208 -480 0
v -224 -496 0
v -240 -496 0
v -240 -480 0
v -224 -480 0
v -208 -512 0
v -224 -512 0
v -224 -496 0
v -208 -496 0
v -224 -512 0
v -240 -512 0
v -240 -496 0
v -224 -496 0
v -240 -528 0
v -256 -528 0
v -256 -512 0
v -240 -512 0
v -256 -528 0
v -272 -528 0
v -272 -512 0
v -256 -512 0
v -240 -544 0
v -256 -544 0
v -256 -528 0
v -240 -528 0
v -256 -544 0
v -272 -544 0
v -272 -528 0
v -256 -528 0
v -480 -544 0
v -496 -544 0
v -496 -528 0
v -480 -528 0
v -496 -544 0
v -512 -544 0
v -512 -528 0
v -496 -528 0
v -480 -560 0
v -496 -560 0
v -496 -544 0
v -480 -544 0
v -496 -560 0
v -512 -560 0
v -512 -544 0
v -496 -544 0
v -480 -608 0
v -496 -608 0
v -496 -592 0
v -480 -592 0
v -464 -624 0
v -480 -624 0
v -480 -608 0
v -464 -608 0
v -480 -624 0
v -496 -624 0
v -496 -608 0
v -480 -608 0
v -448 -640 0
v -464 -640 0
v -464 -624 0
v -448 -624 0
v -464 -640 0
v -480 -640 0
v -480 -624 0
v -464 -624 0
v -480 -640 0
v -496 -640 0
v -496 -624 0
v -480 -624 0
v -448 -656 0
v -464 -656 0
v -464 -640 0
v -448 -640 0
v -464 -656 0
v -480 -656 0
v -480 -640 0
v -464 -640 0
v -448 -672 0
v -464 -672 0
v -464 -656 0
v -448 -656 0

# Texture cooridinates (Count = 17)
vt 0 0.4285714
vt 0.2 0.4285714
vt 0.2 0.5714285
vt 0 0.5714285
vt 0.4 0.4285714
vt 0.4 0.5714285
vt 0 0.2857143
vt 0.2 0.2857143
vt 0.4 0.2857143
vt 0.8 0.4285714
vt 1 0.4285714
vt 1 0.5714285
vt 0.8 0.5714285
vt 0.8 0.2857143
vt 1 0.2857143
vt 0.8 0.1428571
vt 1 0.1428571

# Normal
vn 0 0 -1

# Mesh description
g zoneBoss_mesh_0009

# Faces
f 1/1/1 2/2/1 3/3/1 4/4/1
f 5/2/1 6/5/1 7/6/1 8/3/1
f 9/7/1 10/8/1 11/2/1 12/1/1
f 13/8/1 14/9/1 15/5/1 16/2/1
f 17/1/1 18/2/1 19/3/1 20/4/1
f 21/2/1 22/5/1 23/6/1 24/3/1
f 25/7/1 26/8/1 27/2/1 28/1/1
f 29/8/1 30/9/1 31/5/1 32/2/1
f 33/1/1 34/2/1 35/3/1 36/4/1
f 37/2/1 38/5/1 39/6/1 40/3/1
f 41/7/1 42/8/1 43/2/1 44/1/1
f 45/8/1 46/9/1 47/5/1 48/2/1
f 49/1/1 50/2/1 51/3/1 52/4/1
f 53/2/1 54/5/1 55/6/1 56/3/1
f 57/7/1 58/8/1 59/2/1 60/1/1
f 61/8/1 62/9/1 63/5/1 64/2/1
f 65/10/1 66/11/1 67/12/1 68/13/1
f 69/10/1 70/11/1 71/12/1 72/13/1
f 73/14/1 74/15/1 75/11/1 76/10/1
f 77/10/1 78/11/1 79/12/1 80/13/1
f 81/14/1 82/15/1 83/11/1 84/10/1
f 85/16/1 86/17/1 87/15/1 88/14/1
f 89/14/1 90/15/1 91/11/1 92/10/1
f 93/16/1 94/17/1 95/15/1 96/14/1
f 97/16/1 98/17/1 99/15/1 100/14/1

