# Tiled2Unity generated file. Do not modify by hand.
# Wavefront file for 'zone5_mesh_0006.obj'

# Vertices (Count = 128)
v -592 -272 0
v -608 -272 0
v -608 -256 0
v -592 -256 0
v -592 -288 0
v -608 -288 0
v -608 -272 0
v -592 -272 0
v -592 -304 0
v -608 -304 0
v -608 -288 0
v -592 -288 0
v -512 -336 0
v -528 -336 0
v -528 -320 0
v -512 -320 0
v -528 -336 0
v -544 -336 0
v -544 -320 0
v -528 -320 0
v -544 -336 0
v -560 -336 0
v -560 -320 0
v -544 -320 0
v -512 -352 0
v -528 -352 0
v -528 -336 0
v -512 -336 0
v -528 -352 0
v -544 -352 0
v -544 -336 0
v -528 -336 0
v -544 -352 0
v -560 -352 0
v -560 -336 0
v -544 -336 0
v -576 -352 0
v -592 -352 0
v -592 -336 0
v -576 -336 0
v -512 -368 0
v -528 -368 0
v -528 -352 0
v -512 -352 0
v -528 -368 0
v -544 -368 0
v -544 -352 0
v -528 -352 0
v -544 -368 0
v -560 -368 0
v -560 -352 0
v -544 -352 0
v -576 -368 0
v -592 -368 0
v -592 -352 0
v -576 -352 0
v -576 -384 0
v -592 -384 0
v -592 -368 0
v -576 -368 0
v -624 -416 0
v -640 -416 0
v -640 -400 0
v -624 -400 0
v -624 -432 0
v -640 -432 0
v -640 -416 0
v -624 -416 0
v -608 -448 0
v -624 -448 0
v -624 -432 0
v -608 -432 0
v -624 -448 0
v -640 -448 0
v -640 -432 0
v -624 -432 0
v -608 -464 0
v -624 -464 0
v -624 -448 0
v -608 -448 0
v -624 -464 0
v -640 -464 0
v -640 -448 0
v -624 -448 0
v -608 -480 0
v -624 -480 0
v -624 -464 0
v -608 -464 0
v -624 -480 0
v -640 -480 0
v -640 -464 0
v -624 -464 0
v -624 -496 0
v -640 -496 0
v -640 -480 0
v -624 -480 0
v -352 -544 0
v -368 -544 0
v -368 -528 0
v -352 -528 0
v -368 -544 0
v -384 -544 0
v -384 -528 0
v -368 -528 0
v -352 -560 0
v -368 -560 0
v -368 -544 0
v -352 -544 0
v -368 -560 0
v -384 -560 0
v -384 -544 0
v -368 -544 0
v -448 -576 0
v -464 -576 0
v -464 -560 0
v -448 -560 0
v -464 -576 0
v -480 -576 0
v -480 -560 0
v -464 -560 0
v -448 -592 0
v -464 -592 0
v -464 -576 0
v -448 -576 0
v -464 -592 0
v -480 -592 0
v -480 -576 0
v -464 -576 0

# Texture cooridinates (Count = 30)
vt 0.8 0.4285714
vt 1 0.4285714
vt 1 0.5714285
vt 0.8 0.5714285
vt 0.8 0.2857143
vt 1 0.2857143
vt 0.8 0.1428571
vt 1 0.1428571
vt 0.4 0.8571429
vt 0.6 0.8571429
vt 0.6 1
vt 0.4 1
vt 0.8 0.8571429
vt 0.8 1
vt 1 0.8571429
vt 1 1
vt 0.4 0.7142857
vt 0.6 0.7142857
vt 0.8 0.7142857
vt 1 0.7142857
vt 0.4 0.5714285
vt 0.6 0.5714285
vt 0 0.4285714
vt 0.2 0.4285714
vt 0.2 0.5714285
vt 0 0.5714285
vt 0.4 0.4285714
vt 0 0.2857143
vt 0.2 0.2857143
vt 0.4 0.2857143

# Normal
vn 0 0 -1

# Mesh description
g zone5_mesh_0006

# Faces
f 1/1/1 2/2/1 3/3/1 4/4/1
f 5/5/1 6/6/1 7/2/1 8/1/1
f 9/7/1 10/8/1 11/6/1 12/5/1
f 13/9/1 14/10/1 15/11/1 16/12/1
f 17/10/1 18/13/1 19/14/1 20/11/1
f 21/13/1 22/15/1 23/16/1 24/14/1
f 25/17/1 26/18/1 27/10/1 28/9/1
f 29/18/1 30/19/1 31/13/1 32/10/1
f 33/19/1 34/20/1 35/15/1 36/13/1
f 37/1/1 38/2/1 39/3/1 40/4/1
f 41/21/1 42/22/1 43/18/1 44/17/1
f 45/22/1 46/4/1 47/19/1 48/18/1
f 49/4/1 50/3/1 51/20/1 52/19/1
f 53/5/1 54/6/1 55/2/1 56/1/1
f 57/7/1 58/8/1 59/6/1 60/5/1
f 61/1/1 62/2/1 63/3/1 64/4/1
f 65/5/1 66/6/1 67/2/1 68/1/1
f 69/1/1 70/2/1 71/3/1 72/4/1
f 73/7/1 74/8/1 75/6/1 76/5/1
f 77/5/1 78/6/1 79/2/1 80/1/1
f 81/1/1 82/2/1 83/3/1 84/4/1
f 85/7/1 86/8/1 87/6/1 88/5/1
f 89/5/1 90/6/1 91/2/1 92/1/1
f 93/7/1 94/8/1 95/6/1 96/5/1
f 97/23/1 98/24/1 99/25/1 100/26/1
f 101/24/1 102/27/1 103/21/1 104/25/1
f 105/28/1 106/29/1 107/24/1 108/23/1
f 109/29/1 110/30/1 111/27/1 112/24/1
f 113/23/1 114/24/1 115/25/1 116/26/1
f 117/24/1 118/27/1 119/21/1 120/25/1
f 121/28/1 122/29/1 123/24/1 124/23/1
f 125/29/1 126/30/1 127/27/1 128/24/1

