# Tiled2Unity generated file. Do not modify by hand.
# Wavefront file for 'cavePassage_mesh_0004.obj'

# Vertices (Count = 20)
v -288 -144 0
v -304 -144 0
v -304 -128 0
v -288 -128 0
v -96 -544 0
v -112 -544 0
v -112 -528 0
v -96 -528 0
v -720 -672 0
v -736 -672 0
v -736 -656 0
v -720 -656 0
v -704 -704 0
v -720 -704 0
v -720 -688 0
v -704 -688 0
v -720 -704 0
v -736 -704 0
v -736 -688 0
v -720 -688 0

# Texture cooridinates (Count = 4)
vt 0.2 0.1428571
vt 0.4 0.1428571
vt 0.4 0.2857143
vt 0.2 0.2857143

# Normal
vn 0 0 -1

# Mesh description
g cavePassage_mesh_0004

# Faces
f 1/1/1 2/2/1 3/3/1 4/4/1
f 5/1/1 6/2/1 7/3/1 8/4/1
f 9/1/1 10/2/1 11/3/1 12/4/1
f 13/1/1 14/2/1 15/3/1 16/4/1
f 17/1/1 18/2/1 19/3/1 20/4/1

