# Tiled2Unity generated file. Do not modify by hand.
# Wavefront file for 'hiddenPuzzle_mesh_0002.obj'

# Vertices (Count = 28)
v -336 -368 0
v -352 -368 0
v -352 -352 0
v -336 -352 0
v -352 -368 0
v -368 -368 0
v -368 -352 0
v -352 -352 0
v -368 -368 0
v -384 -368 0
v -384 -352 0
v -368 -352 0
v -384 -368 0
v -400 -368 0
v -400 -352 0
v -384 -352 0
v -400 -368 0
v -416 -368 0
v -416 -352 0
v -400 -352 0
v -416 -368 0
v -432 -368 0
v -432 -352 0
v -416 -352 0
v -432 -368 0
v -448 -368 0
v -448 -352 0
v -432 -352 0

# Texture cooridinates (Count = 4)
vt 0.8 0
vt 1 0
vt 1 0.1428571
vt 0.8 0.1428571

# Normal
vn 0 0 -1

# Mesh description
g hiddenPuzzle_mesh_0002

# Faces
f 1/1/1 2/2/1 3/3/1 4/4/1
f 5/1/1 6/2/1 7/3/1 8/4/1
f 9/1/1 10/2/1 11/3/1 12/4/1
f 13/1/1 14/2/1 15/3/1 16/4/1
f 17/1/1 18/2/1 19/3/1 20/4/1
f 21/1/1 22/2/1 23/3/1 24/4/1
f 25/1/1 26/2/1 27/3/1 28/4/1

