# Tiled2Unity generated file. Do not modify by hand.
# Wavefront file for 'hiddenPuzzle_mesh_0005.obj'

# Vertices (Count = 452)
v -240 -256 0
v -256 -256 0
v -256 -240 0
v -240 -240 0
v -256 -256 0
v -272 -256 0
v -272 -240 0
v -256 -240 0
v -272 -256 0
v -288 -256 0
v -288 -240 0
v -272 -240 0
v -288 -256 0
v -304 -256 0
v -304 -240 0
v -288 -240 0
v -304 -256 0
v -320 -256 0
v -320 -240 0
v -304 -240 0
v -320 -256 0
v -336 -256 0
v -336 -240 0
v -320 -240 0
v -336 -256 0
v -352 -256 0
v -352 -240 0
v -336 -240 0
v -352 -256 0
v -368 -256 0
v -368 -240 0
v -352 -240 0
v -368 -256 0
v -384 -256 0
v -384 -240 0
v -368 -240 0
v -384 -256 0
v -400 -256 0
v -400 -240 0
v -384 -240 0
v -400 -256 0
v -416 -256 0
v -416 -240 0
v -400 -240 0
v -416 -256 0
v -432 -256 0
v -432 -240 0
v -416 -240 0
v -432 -256 0
v -448 -256 0
v -448 -240 0
v -432 -240 0
v -448 -256 0
v -464 -256 0
v -464 -240 0
v -448 -240 0
v -464 -256 0
v -480 -256 0
v -480 -240 0
v -464 -240 0
v -480 -256 0
v -496 -256 0
v -496 -240 0
v -480 -240 0
v -496 -256 0
v -512 -256 0
v -512 -240 0
v -496 -240 0
v -512 -256 0
v -528 -256 0
v -528 -240 0
v -512 -240 0
v -528 -256 0
v -544 -256 0
v -544 -240 0
v -528 -240 0
v -544 -256 0
v -560 -256 0
v -560 -240 0
v -544 -240 0
v -240 -272 0
v -256 -272 0
v -256 -256 0
v -240 -256 0
v -256 -272 0
v -272 -272 0
v -272 -256 0
v -256 -256 0
v -272 -272 0
v -288 -272 0
v -288 -256 0
v -272 -256 0
v -288 -272 0
v -304 -272 0
v -304 -256 0
v -288 -256 0
v -304 -272 0
v -320 -272 0
v -320 -256 0
v -304 -256 0
v -320 -272 0
v -336 -272 0
v -336 -256 0
v -320 -256 0
v -336 -272 0
v -352 -272 0
v -352 -256 0
v -336 -256 0
v -352 -272 0
v -368 -272 0
v -368 -256 0
v -352 -256 0
v -368 -272 0
v -384 -272 0
v -384 -256 0
v -368 -256 0
v -384 -272 0
v -400 -272 0
v -400 -256 0
v -384 -256 0
v -400 -272 0
v -416 -272 0
v -416 -256 0
v -400 -256 0
v -416 -272 0
v -432 -272 0
v -432 -256 0
v -416 -256 0
v -432 -272 0
v -448 -272 0
v -448 -256 0
v -432 -256 0
v -448 -272 0
v -464 -272 0
v -464 -256 0
v -448 -256 0
v -464 -272 0
v -480 -272 0
v -480 -256 0
v -464 -256 0
v -480 -272 0
v -496 -272 0
v -496 -256 0
v -480 -256 0
v -496 -272 0
v -512 -272 0
v -512 -256 0
v -496 -256 0
v -512 -272 0
v -528 -272 0
v -528 -256 0
v -512 -256 0
v -528 -272 0
v -544 -272 0
v -544 -256 0
v -528 -256 0
v -544 -272 0
v -560 -272 0
v -560 -256 0
v -544 -256 0
v -240 -288 0
v -256 -288 0
v -256 -272 0
v -240 -272 0
v -544 -288 0
v -560 -288 0
v -560 -272 0
v -544 -272 0
v -240 -304 0
v -256 -304 0
v -256 -288 0
v -240 -288 0
v -304 -304 0
v -320 -304 0
v -320 -288 0
v -304 -288 0
v -368 -304 0
v -384 -304 0
v -384 -288 0
v -368 -288 0
v -544 -304 0
v -560 -304 0
v -560 -288 0
v -544 -288 0
v -240 -320 0
v -256 -320 0
v -256 -304 0
v -240 -304 0
v -464 -320 0
v -480 -320 0
v -480 -304 0
v -464 -304 0
v -544 -320 0
v -560 -320 0
v -560 -304 0
v -544 -304 0
v -240 -336 0
v -256 -336 0
v -256 -320 0
v -240 -320 0
v -400 -336 0
v -416 -336 0
v -416 -320 0
v -400 -320 0
v -544 -336 0
v -560 -336 0
v -560 -320 0
v -544 -320 0
v -240 -352 0
v -256 -352 0
v -256 -336 0
v -240 -336 0
v -496 -352 0
v -512 -352 0
v -512 -336 0
v -496 -336 0
v -544 -352 0
v -560 -352 0
v -560 -336 0
v -544 -336 0
v -240 -368 0
v -256 -368 0
v -256 -352 0
v -240 -352 0
v -272 -368 0
v -288 -368 0
v -288 -352 0
v -272 -352 0
v -544 -368 0
v -560 -368 0
v -560 -352 0
v -544 -352 0
v -240 -384 0
v -256 -384 0
v -256 -368 0
v -240 -368 0
v -272 -384 0
v -288 -384 0
v -288 -368 0
v -272 -368 0
v -544 -384 0
v -560 -384 0
v -560 -368 0
v -544 -368 0
v -240 -400 0
v -256 -400 0
v -256 -384 0
v -240 -384 0
v -272 -400 0
v -288 -400 0
v -288 -384 0
v -272 -384 0
v -544 -400 0
v -560 -400 0
v -560 -384 0
v -544 -384 0
v -240 -416 0
v -256 -416 0
v -256 -400 0
v -240 -400 0
v -448 -416 0
v -464 -416 0
v -464 -400 0
v -448 -400 0
v -544 -416 0
v -560 -416 0
v -560 -400 0
v -544 -400 0
v -240 -432 0
v -256 -432 0
v -256 -416 0
v -240 -416 0
v -304 -432 0
v -320 -432 0
v -320 -416 0
v -304 -416 0
v -480 -432 0
v -496 -432 0
v -496 -416 0
v -480 -416 0
v -544 -432 0
v -560 -432 0
v -560 -416 0
v -544 -416 0
v -240 -448 0
v -256 -448 0
v -256 -432 0
v -240 -432 0
v -512 -448 0
v -528 -448 0
v -528 -432 0
v -512 -432 0
v -544 -448 0
v -560 -448 0
v -560 -432 0
v -544 -432 0
v -240 -464 0
v -256 -464 0
v -256 -448 0
v -240 -448 0
v -512 -464 0
v -528 -464 0
v -528 -448 0
v -512 -448 0
v -544 -464 0
v -560 -464 0
v -560 -448 0
v -544 -448 0
v -240 -480 0
v -256 -480 0
v -256 -464 0
v -240 -464 0
v -352 -480 0
v -368 -480 0
v -368 -464 0
v -352 -464 0
v -512 -480 0
v -528 -480 0
v -528 -464 0
v -512 -464 0
v -544 -480 0
v -560 -480 0
v -560 -464 0
v -544 -464 0
v -240 -496 0
v -256 -496 0
v -256 -480 0
v -240 -480 0
v -272 -496 0
v -288 -496 0
v -288 -480 0
v -272 -480 0
v -320 -496 0
v -336 -496 0
v -336 -480 0
v -320 -480 0
v -544 -496 0
v -560 -496 0
v -560 -480 0
v -544 -480 0
v -240 -512 0
v -256 -512 0
v -256 -496 0
v -240 -496 0
v -448 -512 0
v -464 -512 0
v -464 -496 0
v -448 -496 0
v -544 -512 0
v -560 -512 0
v -560 -496 0
v -544 -496 0
v -240 -528 0
v -256 -528 0
v -256 -512 0
v -240 -512 0
v -544 -528 0
v -560 -528 0
v -560 -512 0
v -544 -512 0
v -240 -544 0
v -256 -544 0
v -256 -528 0
v -240 -528 0
v -480 -544 0
v -496 -544 0
v -496 -528 0
v -480 -528 0
v -544 -544 0
v -560 -544 0
v -560 -528 0
v -544 -528 0
v -240 -560 0
v -256 -560 0
v -256 -544 0
v -240 -544 0
v -256 -560 0
v -272 -560 0
v -272 -544 0
v -256 -544 0
v -272 -560 0
v -288 -560 0
v -288 -544 0
v -272 -544 0
v -288 -560 0
v -304 -560 0
v -304 -544 0
v -288 -544 0
v -304 -560 0
v -320 -560 0
v -320 -544 0
v -304 -544 0
v -320 -560 0
v -336 -560 0
v -336 -544 0
v -320 -544 0
v -336 -560 0
v -352 -560 0
v -352 -544 0
v -336 -544 0
v -352 -560 0
v -368 -560 0
v -368 -544 0
v -352 -544 0
v -368 -560 0
v -384 -560 0
v -384 -544 0
v -368 -544 0
v -384 -560 0
v -400 -560 0
v -400 -544 0
v -384 -544 0
v -400 -560 0
v -416 -560 0
v -416 -544 0
v -400 -544 0
v -416 -560 0
v -432 -560 0
v -432 -544 0
v -416 -544 0
v -432 -560 0
v -448 -560 0
v -448 -544 0
v -432 -544 0
v -448 -560 0
v -464 -560 0
v -464 -544 0
v -448 -544 0
v -464 -560 0
v -480 -560 0
v -480 -544 0
v -464 -544 0
v -480 -560 0
v -496 -560 0
v -496 -544 0
v -480 -544 0
v -496 -560 0
v -512 -560 0
v -512 -544 0
v -496 -544 0
v -512 -560 0
v -528 -560 0
v -528 -544 0
v -512 -544 0
v -528 -560 0
v -544 -560 0
v -544 -544 0
v -528 -544 0
v -544 -560 0
v -560 -560 0
v -560 -544 0
v -544 -544 0

# Texture cooridinates (Count = 35)
vt 0 0.8571429
vt 0.2 0.8571429
vt 0.2 1
vt 0 1
vt 0.6 0.7142857
vt 0.8 0.7142857
vt 0.8 0.8571429
vt 0.6 0.8571429
vt 0.4 0.8571429
vt 0.4 1
vt 1 0.7142857
vt 1 0.8571429
vt 0.6 0.5714285
vt 0.8 0.5714285
vt 0.4 0.7142857
vt 0.6 0.4285714
vt 0.8 0.4285714
vt 0.2 0.1428571
vt 0.4 0.1428571
vt 0.4 0.2857143
vt 0.2 0.2857143
vt 1 0.4285714
vt 1 0.5714285
vt 0.8 0.2857143
vt 1 0.2857143
vt 0.8 0.1428571
vt 1 0.1428571
vt 0 0.5714285
vt 0.2 0.5714285
vt 0.2 0.7142857
vt 0 0.7142857
vt 0.8 1
vt 0.6 1
vt 1 1
vt 0.4 0.5714285

# Normal
vn 0 0 -1

# Mesh description
g hiddenPuzzle_mesh_0005

# Faces
f 1/1/1 2/2/1 3/3/1 4/4/1
f 5/5/1 6/6/1 7/7/1 8/8/1
f 9/5/1 10/6/1 11/7/1 12/8/1
f 13/5/1 14/6/1 15/7/1 16/8/1
f 17/5/1 18/6/1 19/7/1 20/8/1
f 21/5/1 22/6/1 23/7/1 24/8/1
f 25/5/1 26/6/1 27/7/1 28/8/1
f 29/5/1 30/6/1 31/7/1 32/8/1
f 33/5/1 34/6/1 35/7/1 36/8/1
f 37/5/1 38/6/1 39/7/1 40/8/1
f 41/5/1 42/6/1 43/7/1 44/8/1
f 45/5/1 46/6/1 47/7/1 48/8/1
f 49/5/1 50/6/1 51/7/1 52/8/1
f 53/5/1 54/6/1 55/7/1 56/8/1
f 57/5/1 58/6/1 59/7/1 60/8/1
f 61/5/1 62/6/1 63/7/1 64/8/1
f 65/5/1 66/6/1 67/7/1 68/8/1
f 69/5/1 70/6/1 71/7/1 72/8/1
f 73/5/1 74/6/1 75/7/1 76/8/1
f 77/2/1 78/9/1 79/10/1 80/3/1
f 81/6/1 82/11/1 83/12/1 84/7/1
f 85/13/1 86/14/1 87/6/1 88/5/1
f 89/13/1 90/14/1 91/6/1 92/5/1
f 93/13/1 94/14/1 95/6/1 96/5/1
f 97/13/1 98/14/1 99/6/1 100/5/1
f 101/13/1 102/14/1 103/6/1 104/5/1
f 105/13/1 106/14/1 107/6/1 108/5/1
f 109/13/1 110/14/1 111/6/1 112/5/1
f 113/13/1 114/14/1 115/6/1 116/5/1
f 117/13/1 118/14/1 119/6/1 120/5/1
f 121/13/1 122/14/1 123/6/1 124/5/1
f 125/13/1 126/14/1 127/6/1 128/5/1
f 129/13/1 130/14/1 131/6/1 132/5/1
f 133/13/1 134/14/1 135/6/1 136/5/1
f 137/13/1 138/14/1 139/6/1 140/5/1
f 141/13/1 142/14/1 143/6/1 144/5/1
f 145/13/1 146/14/1 147/6/1 148/5/1
f 149/13/1 150/14/1 151/6/1 152/5/1
f 153/13/1 154/14/1 155/6/1 156/5/1
f 157/15/1 158/5/1 159/8/1 160/9/1
f 161/6/1 162/11/1 163/12/1 164/7/1
f 165/15/1 166/5/1 167/8/1 168/9/1
f 169/6/1 170/11/1 171/12/1 172/7/1
f 173/16/1 174/17/1 175/14/1 176/13/1
f 177/18/1 178/19/1 179/20/1 180/21/1
f 181/15/1 182/5/1 183/8/1 184/9/1
f 185/6/1 186/11/1 187/12/1 188/7/1
f 189/16/1 190/17/1 191/14/1 192/13/1
f 193/15/1 194/5/1 195/8/1 196/9/1
f 197/6/1 198/11/1 199/12/1 200/7/1
f 201/16/1 202/17/1 203/14/1 204/13/1
f 205/15/1 206/5/1 207/8/1 208/9/1
f 209/6/1 210/11/1 211/12/1 212/7/1
f 213/18/1 214/19/1 215/20/1 216/21/1
f 217/15/1 218/5/1 219/8/1 220/9/1
f 221/6/1 222/11/1 223/12/1 224/7/1
f 225/17/1 226/22/1 227/23/1 228/14/1
f 229/15/1 230/5/1 231/8/1 232/9/1
f 233/6/1 234/11/1 235/12/1 236/7/1
f 237/24/1 238/25/1 239/22/1 240/17/1
f 241/15/1 242/5/1 243/8/1 244/9/1
f 245/6/1 246/11/1 247/12/1 248/7/1
f 249/26/1 250/27/1 251/25/1 252/24/1
f 253/15/1 254/5/1 255/8/1 256/9/1
f 257/6/1 258/11/1 259/12/1 260/7/1
f 261/18/1 262/19/1 263/20/1 264/21/1
f 265/15/1 266/5/1 267/8/1 268/9/1
f 269/6/1 270/11/1 271/12/1 272/7/1
f 273/16/1 274/17/1 275/14/1 276/13/1
f 277/16/1 278/17/1 279/14/1 280/13/1
f 281/15/1 282/5/1 283/8/1 284/9/1
f 285/6/1 286/11/1 287/12/1 288/7/1
f 289/17/1 290/22/1 291/23/1 292/14/1
f 293/15/1 294/5/1 295/8/1 296/9/1
f 297/6/1 298/11/1 299/12/1 300/7/1
f 301/24/1 302/25/1 303/22/1 304/17/1
f 305/15/1 306/5/1 307/8/1 308/9/1
f 309/6/1 310/11/1 311/12/1 312/7/1
f 313/18/1 314/19/1 315/20/1 316/21/1
f 317/26/1 318/27/1 319/25/1 320/24/1
f 321/15/1 322/5/1 323/8/1 324/9/1
f 325/6/1 326/11/1 327/12/1 328/7/1
f 329/18/1 330/19/1 331/20/1 332/21/1
f 333/16/1 334/17/1 335/14/1 336/13/1
f 337/15/1 338/5/1 339/8/1 340/9/1
f 341/6/1 342/11/1 343/12/1 344/7/1
f 345/16/1 346/17/1 347/14/1 348/13/1
f 349/15/1 350/5/1 351/8/1 352/9/1
f 353/6/1 354/11/1 355/12/1 356/7/1
f 357/15/1 358/5/1 359/8/1 360/9/1
f 361/6/1 362/11/1 363/12/1 364/7/1
f 365/18/1 366/19/1 367/20/1 368/21/1
f 369/15/1 370/5/1 371/8/1 372/9/1
f 373/28/1 374/29/1 375/30/1 376/31/1
f 377/8/1 378/7/1 379/32/1 380/33/1
f 381/8/1 382/7/1 383/32/1 384/33/1
f 385/8/1 386/7/1 387/32/1 388/33/1
f 389/8/1 390/7/1 391/32/1 392/33/1
f 393/8/1 394/7/1 395/32/1 396/33/1
f 397/8/1 398/7/1 399/32/1 400/33/1
f 401/8/1 402/7/1 403/32/1 404/33/1
f 405/8/1 406/7/1 407/32/1 408/33/1
f 409/7/1 410/12/1 411/34/1 412/32/1
f 413/9/1 414/8/1 415/33/1 416/10/1
f 417/8/1 418/7/1 419/32/1 420/33/1
f 421/8/1 422/7/1 423/32/1 424/33/1
f 425/8/1 426/7/1 427/32/1 428/33/1
f 429/8/1 430/7/1 431/32/1 432/33/1
f 433/8/1 434/7/1 435/32/1 436/33/1
f 437/8/1 438/7/1 439/32/1 440/33/1
f 441/8/1 442/7/1 443/32/1 444/33/1
f 445/8/1 446/7/1 447/32/1 448/33/1
f 449/29/1 450/35/1 451/15/1 452/30/1

