# Tiled2Unity generated file. Do not modify by hand.
# Wavefront file for 'zone-2_mesh_0002.obj'

# Vertices (Count = 44)
v -400 -80 0
v -416 -80 0
v -416 -64 0
v -400 -64 0
v -384 -96 0
v -400 -96 0
v -400 -80 0
v -384 -80 0
v -400 -96 0
v -416 -96 0
v -416 -80 0
v -400 -80 0
v -432 -96 0
v -448 -96 0
v -448 -80 0
v -432 -80 0
v -416 -112 0
v -432 -112 0
v -432 -96 0
v -416 -96 0
v -400 -128 0
v -416 -128 0
v -416 -112 0
v -400 -112 0
v -416 -128 0
v -432 -128 0
v -432 -112 0
v -416 -112 0
v -432 -128 0
v -448 -128 0
v -448 -112 0
v -432 -112 0
v -384 -144 0
v -400 -144 0
v -400 -128 0
v -384 -128 0
v -416 -144 0
v -432 -144 0
v -432 -128 0
v -416 -128 0
v -432 -144 0
v -448 -144 0
v -448 -128 0
v -432 -128 0

# Texture cooridinates (Count = 15)
vt 0.04761905 0.5384616
vt 0.0952381 0.5384616
vt 0.0952381 0.6923077
vt 0.04761905 0.6923077
vt 0.1428571 0.5384616
vt 0.1904762 0.5384616
vt 0.1904762 0.6923077
vt 0.1428571 0.6923077
vt 0.04761905 0.3846154
vt 0.0952381 0.3846154
vt 0.0952381 0.8461539
vt 0.04761905 0.8461539
vt 0.1428571 0.3846154
vt 0.1904762 0.3846154
vt 0.1428571 0.8461539

# Normal
vn 0 0 -1

# Mesh description
g zone-2_mesh_0002

# Faces
f 1/1/1 2/2/1 3/3/1 4/4/1
f 5/5/1 6/6/1 7/7/1 8/8/1
f 9/5/1 10/6/1 11/7/1 12/8/1
f 13/9/1 14/10/1 15/2/1 16/1/1
f 17/5/1 18/6/1 19/7/1 20/8/1
f 21/4/1 22/3/1 23/11/1 24/12/1
f 25/13/1 26/14/1 27/6/1 28/5/1
f 29/5/1 30/6/1 31/7/1 32/8/1
f 33/1/1 34/2/1 35/3/1 36/4/1
f 37/3/1 38/8/1 39/15/1 40/11/1
f 41/9/1 42/10/1 43/2/1 44/1/1

