# Tiled2Unity generated file. Do not modify by hand.
# Wavefront file for 'Zone-3_mesh_0008.obj'

# Vertices (Count = 116)
v -44 -1 0
v -45 -1 0
v -45 0 0
v -44 0 0
v -47 -1 0
v -48 -1 0
v -48 0 0
v -47 0 0
v -40 -2 0
v -41 -2 0
v -41 -1 0
v -40 -1 0
v -42 -2 0
v -43 -2 0
v -43 -1 0
v -42 -1 0
v -43 -2 0
v -44 -2 0
v -44 -1 0
v -43 -1 0
v -48 -2 0
v -49 -2 0
v -49 -1 0
v -48 -1 0
v -49 -2 0
v -50 -2 0
v -50 -1 0
v -49 -1 0
v -40 -3 0
v -41 -3 0
v -41 -2 0
v -40 -2 0
v -41 -3 0
v -42 -3 0
v -42 -2 0
v -41 -2 0
v -42 -3 0
v -43 -3 0
v -43 -2 0
v -42 -2 0
v -43 -3 0
v -44 -3 0
v -44 -2 0
v -43 -2 0
v -44 -3 0
v -45 -3 0
v -45 -2 0
v -44 -2 0
v -45 -3 0
v -46 -3 0
v -46 -2 0
v -45 -2 0
v -46 -3 0
v -47 -3 0
v -47 -2 0
v -46 -2 0
v -47 -3 0
v -48 -3 0
v -48 -2 0
v -47 -2 0
v -48 -3 0
v -49 -3 0
v -49 -2 0
v -48 -2 0
v -49 -3 0
v -50 -3 0
v -50 -2 0
v -49 -2 0
v -40 -4 0
v -41 -4 0
v -41 -3 0
v -40 -3 0
v -41 -4 0
v -42 -4 0
v -42 -3 0
v -41 -3 0
v -42 -4 0
v -43 -4 0
v -43 -3 0
v -42 -3 0
v -43 -4 0
v -44 -4 0
v -44 -3 0
v -43 -3 0
v -44 -4 0
v -45 -4 0
v -45 -3 0
v -44 -3 0
v -45 -4 0
v -46 -4 0
v -46 -3 0
v -45 -3 0
v -46 -4 0
v -47 -4 0
v -47 -3 0
v -46 -3 0
v -47 -4 0
v -48 -4 0
v -48 -3 0
v -47 -3 0
v -48 -4 0
v -49 -4 0
v -49 -3 0
v -48 -3 0
v -49 -4 0
v -50 -4 0
v -50 -3 0
v -49 -3 0
v -40 -5 0
v -41 -5 0
v -41 -4 0
v -40 -4 0
v -49 -5 0
v -50 -5 0
v -50 -4 0
v -49 -4 0

# Texture cooridinates (Count = 12)
vt 0.8095238 0.3846154
vt 0.8571429 0.3846154
vt 0.8571429 0.5384616
vt 0.8095238 0.5384616
vt 0.9047619 0.3846154
vt 0.9047619 0.5384616
vt 0.3809524 0.3846154
vt 0.4285714 0.3846154
vt 0.4285714 0.5384616
vt 0.3809524 0.5384616
vt 0.8571429 0.2307692
vt 0.9047619 0.2307692

# Normal
vn 0 0 -1

# Mesh description
g Zone-3_mesh_0008

# Faces
f 1/1/1 2/2/1 3/3/1 4/4/1
f 5/1/1 6/2/1 7/3/1 8/4/1
f 9/1/1 10/2/1 11/3/1 12/4/1
f 13/1/1 14/2/1 15/3/1 16/4/1
f 17/1/1 18/2/1 19/3/1 20/4/1
f 21/1/1 22/2/1 23/3/1 24/4/1
f 25/1/1 26/2/1 27/3/1 28/4/1
f 29/1/1 30/2/1 31/3/1 32/4/1
f 33/1/1 34/2/1 35/3/1 36/4/1
f 37/1/1 38/2/1 39/3/1 40/4/1
f 41/1/1 42/2/1 43/3/1 44/4/1
f 45/1/1 46/2/1 47/3/1 48/4/1
f 49/1/1 50/2/1 51/3/1 52/4/1
f 53/1/1 54/2/1 55/3/1 56/4/1
f 57/1/1 58/2/1 59/3/1 60/4/1
f 61/1/1 62/2/1 63/3/1 64/4/1
f 65/1/1 66/2/1 67/3/1 68/4/1
f 69/2/1 70/5/1 71/6/1 72/3/1
f 73/2/1 74/5/1 75/6/1 76/3/1
f 77/2/1 78/5/1 79/6/1 80/3/1
f 81/2/1 82/5/1 83/6/1 84/3/1
f 85/7/1 86/8/1 87/9/1 88/10/1
f 89/2/1 90/5/1 91/6/1 92/3/1
f 93/2/1 94/5/1 95/6/1 96/3/1
f 97/2/1 98/5/1 99/6/1 100/3/1
f 101/2/1 102/5/1 103/6/1 104/3/1
f 105/2/1 106/5/1 107/6/1 108/3/1
f 109/11/1 110/12/1 111/5/1 112/2/1
f 113/11/1 114/12/1 115/5/1 116/2/1

