# Tiled2Unity generated file. Do not modify by hand.
# Wavefront file for 'Zone-3_mesh_0006.obj'

# Vertices (Count = 1016)
v 0 -1 0
v -1 -1 0
v -1 0 0
v 0 0 0
v 0 -2 0
v -1 -2 0
v -1 -1 0
v 0 -1 0
v 0 -3 0
v -1 -3 0
v -1 -2 0
v 0 -2 0
v 0 -4 0
v -1 -4 0
v -1 -3 0
v 0 -3 0
v 0 -5 0
v -1 -5 0
v -1 -4 0
v 0 -4 0
v -39 -5 0
v -40 -5 0
v -40 -4 0
v -39 -4 0
v 0 -6 0
v -1 -6 0
v -1 -5 0
v 0 -5 0
v -39 -6 0
v -40 -6 0
v -40 -5 0
v -39 -5 0
v -40 -6 0
v -41 -6 0
v -41 -5 0
v -40 -5 0
v -49 -6 0
v -50 -6 0
v -50 -5 0
v -49 -5 0
v 0 -7 0
v -1 -7 0
v -1 -6 0
v 0 -6 0
v -40 -7 0
v -41 -7 0
v -41 -6 0
v -40 -6 0
v -49 -7 0
v -50 -7 0
v -50 -6 0
v -49 -6 0
v 0 -8 0
v -1 -8 0
v -1 -7 0
v 0 -7 0
v -40 -8 0
v -41 -8 0
v -41 -7 0
v -40 -7 0
v -49 -8 0
v -50 -8 0
v -50 -7 0
v -49 -7 0
v 0 -9 0
v -1 -9 0
v -1 -8 0
v 0 -8 0
v -40 -9 0
v -41 -9 0
v -41 -8 0
v -40 -8 0
v -49 -9 0
v -50 -9 0
v -50 -8 0
v -49 -8 0
v 0 -10 0
v -1 -10 0
v -1 -9 0
v 0 -9 0
v -40 -10 0
v -41 -10 0
v -41 -9 0
v -40 -9 0
v -49 -10 0
v -50 -10 0
v -50 -9 0
v -49 -9 0
v 0 -11 0
v -1 -11 0
v -1 -10 0
v 0 -10 0
v -40 -11 0
v -41 -11 0
v -41 -10 0
v -40 -10 0
v -49 -11 0
v -50 -11 0
v -50 -10 0
v -49 -10 0
v 0 -12 0
v -1 -12 0
v -1 -11 0
v 0 -11 0
v -40 -12 0
v -41 -12 0
v -41 -11 0
v -40 -11 0
v -41 -12 0
v -42 -12 0
v -42 -11 0
v -41 -11 0
v -42 -12 0
v -43 -12 0
v -43 -11 0
v -42 -11 0
v -49 -12 0
v -50 -12 0
v -50 -11 0
v -49 -11 0
v 0 -13 0
v -1 -13 0
v -1 -12 0
v 0 -12 0
v -40 -13 0
v -41 -13 0
v -41 -12 0
v -40 -12 0
v -41 -13 0
v -42 -13 0
v -42 -12 0
v -41 -12 0
v -42 -13 0
v -43 -13 0
v -43 -12 0
v -42 -12 0
v -49 -13 0
v -50 -13 0
v -50 -12 0
v -49 -12 0
v 0 -14 0
v -1 -14 0
v -1 -13 0
v 0 -13 0
v -40 -14 0
v -41 -14 0
v -41 -13 0
v -40 -13 0
v -41 -14 0
v -42 -14 0
v -42 -13 0
v -41 -13 0
v -42 -14 0
v -43 -14 0
v -43 -13 0
v -42 -13 0
v -49 -14 0
v -50 -14 0
v -50 -13 0
v -49 -13 0
v 0 -15 0
v -1 -15 0
v -1 -14 0
v 0 -14 0
v -1 -15 0
v -2 -15 0
v -2 -14 0
v -1 -14 0
v -40 -15 0
v -41 -15 0
v -41 -14 0
v -40 -14 0
v -41 -15 0
v -42 -15 0
v -42 -14 0
v -41 -14 0
v -42 -15 0
v -43 -15 0
v -43 -14 0
v -42 -14 0
v -49 -15 0
v -50 -15 0
v -50 -14 0
v -49 -14 0
v 0 -16 0
v -1 -16 0
v -1 -15 0
v 0 -15 0
v -1 -16 0
v -2 -16 0
v -2 -15 0
v -1 -15 0
v -2 -16 0
v -3 -16 0
v -3 -15 0
v -2 -15 0
v -3 -16 0
v -4 -16 0
v -4 -15 0
v -3 -15 0
v -4 -16 0
v -5 -16 0
v -5 -15 0
v -4 -15 0
v -5 -16 0
v -6 -16 0
v -6 -15 0
v -5 -15 0
v -6 -16 0
v -7 -16 0
v -7 -15 0
v -6 -15 0
v -7 -16 0
v -8 -16 0
v -8 -15 0
v -7 -15 0
v -8 -16 0
v -9 -16 0
v -9 -15 0
v -8 -15 0
v -9 -16 0
v -10 -16 0
v -10 -15 0
v -9 -15 0
v -10 -16 0
v -11 -16 0
v -11 -15 0
v -10 -15 0
v -11 -16 0
v -12 -16 0
v -12 -15 0
v -11 -15 0
v -40 -16 0
v -41 -16 0
v -41 -15 0
v -40 -15 0
v -49 -16 0
v -50 -16 0
v -50 -15 0
v -49 -15 0
v -5 -17 0
v -6 -17 0
v -6 -16 0
v -5 -16 0
v -6 -17 0
v -7 -17 0
v -7 -16 0
v -6 -16 0
v -7 -17 0
v -8 -17 0
v -8 -16 0
v -7 -16 0
v -8 -17 0
v -9 -17 0
v -9 -16 0
v -8 -16 0
v -11 -17 0
v -12 -17 0
v -12 -16 0
v -11 -16 0
v -40 -17 0
v -41 -17 0
v -41 -16 0
v -40 -16 0
v -49 -17 0
v -50 -17 0
v -50 -16 0
v -49 -16 0
v -5 -18 0
v -6 -18 0
v -6 -17 0
v -5 -17 0
v -6 -18 0
v -7 -18 0
v -7 -17 0
v -6 -17 0
v -7 -18 0
v -8 -18 0
v -8 -17 0
v -7 -17 0
v -8 -18 0
v -9 -18 0
v -9 -17 0
v -8 -17 0
v -11 -18 0
v -12 -18 0
v -12 -17 0
v -11 -17 0
v -12 -18 0
v -13 -18 0
v -13 -17 0
v -12 -17 0
v -40 -18 0
v -41 -18 0
v -41 -17 0
v -40 -17 0
v -49 -18 0
v -50 -18 0
v -50 -17 0
v -49 -17 0
v -11 -19 0
v -12 -19 0
v -12 -18 0
v -11 -18 0
v -12 -19 0
v -13 -19 0
v -13 -18 0
v -12 -18 0
v -13 -19 0
v -14 -19 0
v -14 -18 0
v -13 -18 0
v -14 -19 0
v -15 -19 0
v -15 -18 0
v -14 -18 0
v -15 -19 0
v -16 -19 0
v -16 -18 0
v -15 -18 0
v -16 -19 0
v -17 -19 0
v -17 -18 0
v -16 -18 0
v -17 -19 0
v -18 -19 0
v -18 -18 0
v -17 -18 0
v -18 -19 0
v -19 -19 0
v -19 -18 0
v -18 -18 0
v -40 -19 0
v -41 -19 0
v -41 -18 0
v -40 -18 0
v -47 -19 0
v -48 -19 0
v -48 -18 0
v -47 -18 0
v -48 -19 0
v -49 -19 0
v -49 -18 0
v -48 -18 0
v -49 -19 0
v -50 -19 0
v -50 -18 0
v -49 -18 0
v -18 -20 0
v -19 -20 0
v -19 -19 0
v -18 -19 0
v -40 -20 0
v -41 -20 0
v -41 -19 0
v -40 -19 0
v -47 -20 0
v -48 -20 0
v -48 -19 0
v -47 -19 0
v -48 -20 0
v -49 -20 0
v -49 -19 0
v -48 -19 0
v -49 -20 0
v -50 -20 0
v -50 -19 0
v -49 -19 0
v -14 -21 0
v -15 -21 0
v -15 -20 0
v -14 -20 0
v -15 -21 0
v -16 -21 0
v -16 -20 0
v -15 -20 0
v -18 -21 0
v -19 -21 0
v -19 -20 0
v -18 -20 0
v -40 -21 0
v -41 -21 0
v -41 -20 0
v -40 -20 0
v -49 -21 0
v -50 -21 0
v -50 -20 0
v -49 -20 0
v -14 -22 0
v -15 -22 0
v -15 -21 0
v -14 -21 0
v -15 -22 0
v -16 -22 0
v -16 -21 0
v -15 -21 0
v -18 -22 0
v -19 -22 0
v -19 -21 0
v -18 -21 0
v -38 -22 0
v -39 -22 0
v -39 -21 0
v -38 -21 0
v -39 -22 0
v -40 -22 0
v -40 -21 0
v -39 -21 0
v -40 -22 0
v -41 -22 0
v -41 -21 0
v -40 -21 0
v -49 -22 0
v -50 -22 0
v -50 -21 0
v -49 -21 0
v -18 -23 0
v -19 -23 0
v -19 -22 0
v -18 -22 0
v -19 -23 0
v -20 -23 0
v -20 -22 0
v -19 -22 0
v -20 -23 0
v -21 -23 0
v -21 -22 0
v -20 -22 0
v -33 -23 0
v -34 -23 0
v -34 -22 0
v -33 -22 0
v -34 -23 0
v -35 -23 0
v -35 -22 0
v -34 -22 0
v -35 -23 0
v -36 -23 0
v -36 -22 0
v -35 -22 0
v -36 -23 0
v -37 -23 0
v -37 -22 0
v -36 -22 0
v -37 -23 0
v -38 -23 0
v -38 -22 0
v -37 -22 0
v -38 -23 0
v -39 -23 0
v -39 -22 0
v -38 -22 0
v -39 -23 0
v -40 -23 0
v -40 -22 0
v -39 -22 0
v -40 -23 0
v -41 -23 0
v -41 -22 0
v -40 -22 0
v -49 -23 0
v -50 -23 0
v -50 -22 0
v -49 -22 0
v -18 -24 0
v -19 -24 0
v -19 -23 0
v -18 -23 0
v -19 -24 0
v -20 -24 0
v -20 -23 0
v -19 -23 0
v -20 -24 0
v -21 -24 0
v -21 -23 0
v -20 -23 0
v -21 -24 0
v -22 -24 0
v -22 -23 0
v -21 -23 0
v -22 -24 0
v -23 -24 0
v -23 -23 0
v -22 -23 0
v -23 -24 0
v -24 -24 0
v -24 -23 0
v -23 -23 0
v -24 -24 0
v -25 -24 0
v -25 -23 0
v -24 -23 0
v -25 -24 0
v -26 -24 0
v -26 -23 0
v -25 -23 0
v -26 -24 0
v -27 -24 0
v -27 -23 0
v -26 -23 0
v -27 -24 0
v -28 -24 0
v -28 -23 0
v -27 -23 0
v -28 -24 0
v -29 -24 0
v -29 -23 0
v -28 -23 0
v -29 -24 0
v -30 -24 0
v -30 -23 0
v -29 -23 0
v -30 -24 0
v -31 -24 0
v -31 -23 0
v -30 -23 0
v -31 -24 0
v -32 -24 0
v -32 -23 0
v -31 -23 0
v -32 -24 0
v -33 -24 0
v -33 -23 0
v -32 -23 0
v -33 -24 0
v -34 -24 0
v -34 -23 0
v -33 -23 0
v -34 -24 0
v -35 -24 0
v -35 -23 0
v -34 -23 0
v -49 -24 0
v -50 -24 0
v -50 -23 0
v -49 -23 0
v -49 -25 0
v -50 -25 0
v -50 -24 0
v -49 -24 0
v -49 -26 0
v -50 -26 0
v -50 -25 0
v -49 -25 0
v -49 -27 0
v -50 -27 0
v -50 -26 0
v -49 -26 0
v 0 -28 0
v -1 -28 0
v -1 -27 0
v 0 -27 0
v -1 -28 0
v -2 -28 0
v -2 -27 0
v -1 -27 0
v -2 -28 0
v -3 -28 0
v -3 -27 0
v -2 -27 0
v -22 -28 0
v -23 -28 0
v -23 -27 0
v -22 -27 0
v -44 -28 0
v -45 -28 0
v -45 -27 0
v -44 -27 0
v -45 -28 0
v -46 -28 0
v -46 -27 0
v -45 -27 0
v -46 -28 0
v -47 -28 0
v -47 -27 0
v -46 -27 0
v -47 -28 0
v -48 -28 0
v -48 -27 0
v -47 -27 0
v -48 -28 0
v -49 -28 0
v -49 -27 0
v -48 -27 0
v -49 -28 0
v -50 -28 0
v -50 -27 0
v -49 -27 0
v -2 -29 0
v -3 -29 0
v -3 -28 0
v -2 -28 0
v -22 -29 0
v -23 -29 0
v -23 -28 0
v -22 -28 0
v -37 -29 0
v -38 -29 0
v -38 -28 0
v -37 -28 0
v -44 -29 0
v -45 -29 0
v -45 -28 0
v -44 -28 0
v -2 -30 0
v -3 -30 0
v -3 -29 0
v -2 -29 0
v -3 -30 0
v -4 -30 0
v -4 -29 0
v -3 -29 0
v -4 -30 0
v -5 -30 0
v -5 -29 0
v -4 -29 0
v -22 -30 0
v -23 -30 0
v -23 -29 0
v -22 -29 0
v -44 -30 0
v -45 -30 0
v -45 -29 0
v -44 -29 0
v -2 -31 0
v -3 -31 0
v -3 -30 0
v -2 -30 0
v -3 -31 0
v -4 -31 0
v -4 -30 0
v -3 -30 0
v -4 -31 0
v -5 -31 0
v -5 -30 0
v -4 -30 0
v -15 -31 0
v -16 -31 0
v -16 -30 0
v -15 -30 0
v -44 -31 0
v -45 -31 0
v -45 -30 0
v -44 -30 0
v -2 -32 0
v -3 -32 0
v -3 -31 0
v -2 -31 0
v -3 -32 0
v -4 -32 0
v -4 -31 0
v -3 -31 0
v -4 -32 0
v -5 -32 0
v -5 -31 0
v -4 -31 0
v -15 -32 0
v -16 -32 0
v -16 -31 0
v -15 -31 0
v -44 -32 0
v -45 -32 0
v -45 -31 0
v -44 -31 0
v -2 -33 0
v -3 -33 0
v -3 -32 0
v -2 -32 0
v -3 -33 0
v -4 -33 0
v -4 -32 0
v -3 -32 0
v -4 -33 0
v -5 -33 0
v -5 -32 0
v -4 -32 0
v -15 -33 0
v -16 -33 0
v -16 -32 0
v -15 -32 0
v -26 -33 0
v -27 -33 0
v -27 -32 0
v -26 -32 0
v -44 -33 0
v -45 -33 0
v -45 -32 0
v -44 -32 0
v -2 -34 0
v -3 -34 0
v -3 -33 0
v -2 -33 0
v -4 -34 0
v -5 -34 0
v -5 -33 0
v -4 -33 0
v -5 -34 0
v -6 -34 0
v -6 -33 0
v -5 -33 0
v -44 -34 0
v -45 -34 0
v -45 -33 0
v -44 -33 0
v -2 -35 0
v -3 -35 0
v -3 -34 0
v -2 -34 0
v -3 -35 0
v -4 -35 0
v -4 -34 0
v -3 -34 0
v -4 -35 0
v -5 -35 0
v -5 -34 0
v -4 -34 0
v -5 -35 0
v -6 -35 0
v -6 -34 0
v -5 -34 0
v -24 -35 0
v -25 -35 0
v -25 -34 0
v -24 -34 0
v -25 -35 0
v -26 -35 0
v -26 -34 0
v -25 -34 0
v -44 -35 0
v -45 -35 0
v -45 -34 0
v -44 -34 0
v -3 -36 0
v -4 -36 0
v -4 -35 0
v -3 -35 0
v -4 -36 0
v -5 -36 0
v -5 -35 0
v -4 -35 0
v -5 -36 0
v -6 -36 0
v -6 -35 0
v -5 -35 0
v -6 -36 0
v -7 -36 0
v -7 -35 0
v -6 -35 0
v -7 -36 0
v -8 -36 0
v -8 -35 0
v -7 -35 0
v -13 -36 0
v -14 -36 0
v -14 -35 0
v -13 -35 0
v -24 -36 0
v -25 -36 0
v -25 -35 0
v -24 -35 0
v -25 -36 0
v -26 -36 0
v -26 -35 0
v -25 -35 0
v -44 -36 0
v -45 -36 0
v -45 -35 0
v -44 -35 0
v -7 -37 0
v -8 -37 0
v -8 -36 0
v -7 -36 0
v -44 -37 0
v -45 -37 0
v -45 -36 0
v -44 -36 0
v -7 -38 0
v -8 -38 0
v -8 -37 0
v -7 -37 0
v -8 -38 0
v -9 -38 0
v -9 -37 0
v -8 -37 0
v -9 -38 0
v -10 -38 0
v -10 -37 0
v -9 -37 0
v -10 -38 0
v -11 -38 0
v -11 -37 0
v -10 -37 0
v -11 -38 0
v -12 -38 0
v -12 -37 0
v -11 -37 0
v -43 -38 0
v -44 -38 0
v -44 -37 0
v -43 -37 0
v -44 -38 0
v -45 -38 0
v -45 -37 0
v -44 -37 0
v -11 -39 0
v -12 -39 0
v -12 -38 0
v -11 -38 0
v -44 -39 0
v -45 -39 0
v -45 -38 0
v -44 -38 0
v -11 -40 0
v -12 -40 0
v -12 -39 0
v -11 -39 0
v -44 -40 0
v -45 -40 0
v -45 -39 0
v -44 -39 0
v -11 -41 0
v -12 -41 0
v -12 -40 0
v -11 -40 0
v -37 -41 0
v -38 -41 0
v -38 -40 0
v -37 -40 0
v -38 -41 0
v -39 -41 0
v -39 -40 0
v -38 -40 0
v -39 -41 0
v -40 -41 0
v -40 -40 0
v -39 -40 0
v -40 -41 0
v -41 -41 0
v -41 -40 0
v -40 -40 0
v -41 -41 0
v -42 -41 0
v -42 -40 0
v -41 -40 0
v -42 -41 0
v -43 -41 0
v -43 -40 0
v -42 -40 0
v -43 -41 0
v -44 -41 0
v -44 -40 0
v -43 -40 0
v -44 -41 0
v -45 -41 0
v -45 -40 0
v -44 -40 0
v -11 -42 0
v -12 -42 0
v -12 -41 0
v -11 -41 0
v -37 -42 0
v -38 -42 0
v -38 -41 0
v -37 -41 0
v -38 -42 0
v -39 -42 0
v -39 -41 0
v -38 -41 0
v -11 -43 0
v -12 -43 0
v -12 -42 0
v -11 -42 0
v -12 -43 0
v -13 -43 0
v -13 -42 0
v -12 -42 0
v -13 -43 0
v -14 -43 0
v -14 -42 0
v -13 -42 0
v -14 -43 0
v -15 -43 0
v -15 -42 0
v -14 -42 0
v -15 -43 0
v -16 -43 0
v -16 -42 0
v -15 -42 0
v -16 -43 0
v -17 -43 0
v -17 -42 0
v -16 -42 0
v -17 -43 0
v -18 -43 0
v -18 -42 0
v -17 -42 0
v -18 -43 0
v -19 -43 0
v -19 -42 0
v -18 -42 0
v -37 -43 0
v -38 -43 0
v -38 -42 0
v -37 -42 0
v -18 -44 0
v -19 -44 0
v -19 -43 0
v -18 -43 0
v -37 -44 0
v -38 -44 0
v -38 -43 0
v -37 -43 0
v -18 -45 0
v -19 -45 0
v -19 -44 0
v -18 -44 0
v -37 -45 0
v -38 -45 0
v -38 -44 0
v -37 -44 0
v -18 -46 0
v -19 -46 0
v -19 -45 0
v -18 -45 0
v -19 -46 0
v -20 -46 0
v -20 -45 0
v -19 -45 0
v -20 -46 0
v -21 -46 0
v -21 -45 0
v -20 -45 0
v -21 -46 0
v -22 -46 0
v -22 -45 0
v -21 -45 0
v -22 -46 0
v -23 -46 0
v -23 -45 0
v -22 -45 0
v -23 -46 0
v -24 -46 0
v -24 -45 0
v -23 -45 0
v -24 -46 0
v -25 -46 0
v -25 -45 0
v -24 -45 0
v -25 -46 0
v -26 -46 0
v -26 -45 0
v -25 -45 0
v -26 -46 0
v -27 -46 0
v -27 -45 0
v -26 -45 0
v -37 -46 0
v -38 -46 0
v -38 -45 0
v -37 -45 0
v -26 -47 0
v -27 -47 0
v -27 -46 0
v -26 -46 0
v -27 -47 0
v -28 -47 0
v -28 -46 0
v -27 -46 0
v -28 -47 0
v -29 -47 0
v -29 -46 0
v -28 -46 0
v -29 -47 0
v -30 -47 0
v -30 -46 0
v -29 -46 0
v -37 -47 0
v -38 -47 0
v -38 -46 0
v -37 -46 0
v -29 -48 0
v -30 -48 0
v -30 -47 0
v -29 -47 0
v -30 -48 0
v -31 -48 0
v -31 -47 0
v -30 -47 0
v -31 -48 0
v -32 -48 0
v -32 -47 0
v -31 -47 0
v -32 -48 0
v -33 -48 0
v -33 -47 0
v -32 -47 0
v -33 -48 0
v -34 -48 0
v -34 -47 0
v -33 -47 0
v -34 -48 0
v -35 -48 0
v -35 -47 0
v -34 -47 0
v -35 -48 0
v -36 -48 0
v -36 -47 0
v -35 -47 0
v -36 -48 0
v -37 -48 0
v -37 -47 0
v -36 -47 0
v -37 -48 0
v -38 -48 0
v -38 -47 0
v -37 -47 0

# Texture cooridinates (Count = 40)
vt 0.4 0.7142857
vt 0.6 0.7142857
vt 0.6 0.8571429
vt 0.4 0.8571429
vt 0 0.8571429
vt 0.2 0.8571429
vt 0.2 1
vt 0 1
vt 0 0.5714285
vt 0.2 0.5714285
vt 0.2 0.7142857
vt 0 0.7142857
vt 0.8 0.7142857
vt 1 0.7142857
vt 1 0.8571429
vt 0.8 0.8571429
vt 0 0.4285714
vt 0.2 0.4285714
vt 0.4 0.4285714
vt 0.4 0.5714285
vt 0 0.2857143
vt 0.2 0.2857143
vt 0.4 0.2857143
vt 0.4 1
vt 0.6 0.5714285
vt 0.8 0.5714285
vt 1 0.5714285
vt 0 0.1428571
vt 0.2 0.1428571
vt 0.8 1
vt 0.6 1
vt 1 1
vt 0.8 0.4285714
vt 1 0.4285714
vt 0.8 0.2857143
vt 1 0.2857143
vt 0.6 0.2857143
vt 0.6 0.4285714
vt 0.8 0.1428571
vt 1 0.1428571

# Normal
vn 0 0 -1

# Mesh description
g Zone-3_mesh_0006

# Faces
f 1/1/1 2/2/1 3/3/1 4/4/1
f 5/1/1 6/2/1 7/3/1 8/4/1
f 9/1/1 10/2/1 11/3/1 12/4/1
f 13/1/1 14/2/1 15/3/1 16/4/1
f 17/1/1 18/2/1 19/3/1 20/4/1
f 21/5/1 22/6/1 23/7/1 24/8/1
f 25/1/1 26/2/1 27/3/1 28/4/1
f 29/9/1 30/10/1 31/11/1 32/12/1
f 33/13/1 34/14/1 35/15/1 36/16/1
f 37/1/1 38/2/1 39/3/1 40/4/1
f 41/1/1 42/2/1 43/3/1 44/4/1
f 45/13/1 46/14/1 47/15/1 48/16/1
f 49/1/1 50/2/1 51/3/1 52/4/1
f 53/1/1 54/2/1 55/3/1 56/4/1
f 57/13/1 58/14/1 59/15/1 60/16/1
f 61/1/1 62/2/1 63/3/1 64/4/1
f 65/1/1 66/2/1 67/3/1 68/4/1
f 69/13/1 70/14/1 71/15/1 72/16/1
f 73/1/1 74/2/1 75/3/1 76/4/1
f 77/1/1 78/2/1 79/3/1 80/4/1
f 81/13/1 82/14/1 83/15/1 84/16/1
f 85/1/1 86/2/1 87/3/1 88/4/1
f 89/1/1 90/2/1 91/3/1 92/4/1
f 93/13/1 94/14/1 95/15/1 96/16/1
f 97/1/1 98/2/1 99/3/1 100/4/1
f 101/1/1 102/2/1 103/3/1 104/4/1
f 105/13/1 106/14/1 107/15/1 108/16/1
f 109/17/1 110/18/1 111/10/1 112/9/1
f 113/18/1 114/19/1 115/20/1 116/10/1
f 117/1/1 118/2/1 119/3/1 120/4/1
f 121/1/1 122/2/1 123/3/1 124/4/1
f 125/13/1 126/14/1 127/15/1 128/16/1
f 129/21/1 130/22/1 131/18/1 132/17/1
f 133/22/1 134/23/1 135/19/1 136/18/1
f 137/1/1 138/2/1 139/3/1 140/4/1
f 141/1/1 142/2/1 143/3/1 144/4/1
f 145/13/1 146/14/1 147/15/1 148/16/1
f 149/17/1 150/18/1 151/10/1 152/9/1
f 153/18/1 154/19/1 155/20/1 156/10/1
f 157/1/1 158/2/1 159/3/1 160/4/1
f 161/1/1 162/2/1 163/3/1 164/4/1
f 165/6/1 166/4/1 167/24/1 168/7/1
f 169/13/1 170/14/1 171/15/1 172/16/1
f 173/21/1 174/22/1 175/18/1 176/17/1
f 177/22/1 178/23/1 179/19/1 180/18/1
f 181/1/1 182/2/1 183/3/1 184/4/1
f 185/20/1 186/25/1 187/2/1 188/1/1
f 189/25/1 190/26/1 191/13/1 192/2/1
f 193/25/1 194/26/1 195/13/1 196/2/1
f 197/25/1 198/26/1 199/13/1 200/2/1
f 201/25/1 202/26/1 203/13/1 204/2/1
f 205/25/1 206/26/1 207/13/1 208/2/1
f 209/25/1 210/26/1 211/13/1 212/2/1
f 213/25/1 214/26/1 215/13/1 216/2/1
f 217/25/1 218/26/1 219/13/1 220/2/1
f 221/25/1 222/26/1 223/13/1 224/2/1
f 225/25/1 226/26/1 227/13/1 228/2/1
f 229/11/1 230/1/1 231/4/1 232/6/1
f 233/13/1 234/14/1 235/15/1 236/16/1
f 237/1/1 238/2/1 239/3/1 240/4/1
f 241/17/1 242/18/1 243/10/1 244/9/1
f 245/18/1 246/19/1 247/20/1 248/10/1
f 249/17/1 250/18/1 251/10/1 252/9/1
f 253/18/1 254/19/1 255/20/1 256/10/1
f 257/1/1 258/2/1 259/3/1 260/4/1
f 261/13/1 262/14/1 263/15/1 264/16/1
f 265/1/1 266/2/1 267/3/1 268/4/1
f 269/21/1 270/22/1 271/18/1 272/17/1
f 273/22/1 274/23/1 275/19/1 276/18/1
f 277/21/1 278/22/1 279/18/1 280/17/1
f 281/22/1 282/23/1 283/19/1 284/18/1
f 285/1/1 286/2/1 287/3/1 288/4/1
f 289/6/1 290/4/1 291/24/1 292/7/1
f 293/13/1 294/14/1 295/15/1 296/16/1
f 297/1/1 298/2/1 299/3/1 300/4/1
f 301/20/1 302/25/1 303/2/1 304/1/1
f 305/25/1 306/26/1 307/13/1 308/2/1
f 309/25/1 310/26/1 311/13/1 312/2/1
f 313/25/1 314/26/1 315/13/1 316/2/1
f 317/25/1 318/26/1 319/13/1 320/2/1
f 321/25/1 322/26/1 323/13/1 324/2/1
f 325/25/1 326/26/1 327/13/1 328/2/1
f 329/11/1 330/1/1 331/4/1 332/6/1
f 333/13/1 334/14/1 335/15/1 336/16/1
f 337/17/1 338/18/1 339/10/1 340/9/1
f 341/18/1 342/19/1 343/20/1 344/10/1
f 345/1/1 346/2/1 347/3/1 348/4/1
f 349/1/1 350/2/1 351/3/1 352/4/1
f 353/13/1 354/14/1 355/15/1 356/16/1
f 357/21/1 358/22/1 359/18/1 360/17/1
f 361/22/1 362/23/1 363/19/1 364/18/1
f 365/1/1 366/2/1 367/3/1 368/4/1
f 369/17/1 370/18/1 371/10/1 372/9/1
f 373/18/1 374/19/1 375/20/1 376/10/1
f 377/1/1 378/2/1 379/3/1 380/4/1
f 381/13/1 382/14/1 383/15/1 384/16/1
f 385/1/1 386/2/1 387/3/1 388/4/1
f 389/21/1 390/22/1 391/18/1 392/17/1
f 393/22/1 394/23/1 395/19/1 396/18/1
f 397/1/1 398/2/1 399/3/1 400/4/1
f 401/5/1 402/6/1 403/7/1 404/8/1
f 405/5/1 406/6/1 407/7/1 408/8/1
f 409/13/1 410/14/1 411/15/1 412/16/1
f 413/1/1 414/2/1 415/3/1 416/4/1
f 417/1/1 418/2/1 419/3/1 420/4/1
f 421/6/1 422/4/1 423/24/1 424/7/1
f 425/6/1 426/4/1 427/24/1 428/7/1
f 429/5/1 430/6/1 431/7/1 432/8/1
f 433/12/1 434/11/1 435/6/1 436/5/1
f 437/25/1 438/26/1 439/13/1 440/2/1
f 441/25/1 442/26/1 443/13/1 444/2/1
f 445/25/1 446/26/1 447/13/1 448/2/1
f 449/25/1 450/26/1 451/13/1 452/2/1
f 453/25/1 454/26/1 455/13/1 456/2/1
f 457/26/1 458/27/1 459/14/1 460/13/1
f 461/1/1 462/2/1 463/3/1 464/4/1
f 465/20/1 466/25/1 467/2/1 468/1/1
f 469/25/1 470/26/1 471/13/1 472/2/1
f 473/25/1 474/26/1 475/13/1 476/2/1
f 477/25/1 478/26/1 479/13/1 480/2/1
f 481/25/1 482/26/1 483/13/1 484/2/1
f 485/25/1 486/26/1 487/13/1 488/2/1
f 489/25/1 490/26/1 491/13/1 492/2/1
f 493/25/1 494/26/1 495/13/1 496/2/1
f 497/25/1 498/26/1 499/13/1 500/2/1
f 501/25/1 502/26/1 503/13/1 504/2/1
f 505/25/1 506/26/1 507/13/1 508/2/1
f 509/25/1 510/26/1 511/13/1 512/2/1
f 513/25/1 514/26/1 515/13/1 516/2/1
f 517/25/1 518/26/1 519/13/1 520/2/1
f 521/25/1 522/26/1 523/13/1 524/2/1
f 525/28/1 526/29/1 527/22/1 528/21/1
f 529/26/1 530/27/1 531/14/1 532/13/1
f 533/1/1 534/2/1 535/3/1 536/4/1
f 537/1/1 538/2/1 539/3/1 540/4/1
f 541/1/1 542/2/1 543/3/1 544/4/1
f 545/1/1 546/2/1 547/3/1 548/4/1
f 549/3/1 550/16/1 551/30/1 552/31/1
f 553/3/1 554/16/1 555/30/1 556/31/1
f 557/16/1 558/15/1 559/32/1 560/30/1
f 561/33/1 562/34/1 563/27/1 564/26/1
f 565/4/1 566/3/1 567/31/1 568/24/1
f 569/3/1 570/16/1 571/30/1 572/31/1
f 573/3/1 574/16/1 575/30/1 576/31/1
f 577/3/1 578/16/1 579/30/1 580/31/1
f 581/3/1 582/16/1 583/30/1 584/31/1
f 585/10/1 586/20/1 587/1/1 588/11/1
f 589/13/1 590/14/1 591/15/1 592/16/1
f 593/35/1 594/36/1 595/34/1 596/33/1
f 597/23/1 598/37/1 599/38/1 600/19/1
f 601/1/1 602/2/1 603/3/1 604/4/1
f 605/13/1 606/14/1 607/15/1 608/16/1
f 609/17/1 610/18/1 611/10/1 612/9/1
f 613/18/1 614/19/1 615/20/1 616/10/1
f 617/39/1 618/40/1 619/36/1 620/35/1
f 621/1/1 622/2/1 623/3/1 624/4/1
f 625/13/1 626/14/1 627/15/1 628/16/1
f 629/21/1 630/22/1 631/18/1 632/17/1
f 633/22/1 634/23/1 635/19/1 636/18/1
f 637/33/1 638/34/1 639/27/1 640/26/1
f 641/1/1 642/2/1 643/3/1 644/4/1
f 645/13/1 646/14/1 647/15/1 648/16/1
f 649/17/1 650/18/1 651/10/1 652/9/1
f 653/18/1 654/19/1 655/20/1 656/10/1
f 657/35/1 658/36/1 659/34/1 660/33/1
f 661/1/1 662/2/1 663/3/1 664/4/1
f 665/13/1 666/14/1 667/15/1 668/16/1
f 669/21/1 670/22/1 671/18/1 672/17/1
f 673/22/1 674/23/1 675/19/1 676/18/1
f 677/39/1 678/40/1 679/36/1 680/35/1
f 681/19/1 682/38/1 683/25/1 684/20/1
f 685/1/1 686/2/1 687/3/1 688/4/1
f 689/13/1 690/14/1 691/15/1 692/16/1
f 693/17/1 694/18/1 695/10/1 696/9/1
f 697/18/1 698/19/1 699/20/1 700/10/1
f 701/1/1 702/2/1 703/3/1 704/4/1
f 705/9/1 706/10/1 707/11/1 708/12/1
f 709/16/1 710/15/1 711/32/1 712/30/1
f 713/21/1 714/22/1 715/18/1 716/17/1
f 717/22/1 718/23/1 719/19/1 720/18/1
f 721/17/1 722/18/1 723/10/1 724/9/1
f 725/18/1 726/19/1 727/20/1 728/10/1
f 729/1/1 730/2/1 731/3/1 732/4/1
f 733/9/1 734/10/1 735/11/1 736/12/1
f 737/3/1 738/16/1 739/30/1 740/31/1
f 741/3/1 742/16/1 743/30/1 744/31/1
f 745/3/1 746/16/1 747/30/1 748/31/1
f 749/16/1 750/15/1 751/32/1 752/30/1
f 753/19/1 754/38/1 755/25/1 756/20/1
f 757/21/1 758/22/1 759/18/1 760/17/1
f 761/22/1 762/23/1 763/19/1 764/18/1
f 765/1/1 766/2/1 767/3/1 768/4/1
f 769/13/1 770/14/1 771/15/1 772/16/1
f 773/1/1 774/2/1 775/3/1 776/4/1
f 777/9/1 778/10/1 779/11/1 780/12/1
f 781/3/1 782/16/1 783/30/1 784/31/1
f 785/3/1 786/16/1 787/30/1 788/31/1
f 789/3/1 790/16/1 791/30/1 792/31/1
f 793/16/1 794/15/1 795/32/1 796/30/1
f 797/23/1 798/37/1 799/38/1 800/19/1
f 801/1/1 802/2/1 803/3/1 804/4/1
f 805/13/1 806/14/1 807/15/1 808/16/1
f 809/1/1 810/2/1 811/3/1 812/4/1
f 813/13/1 814/14/1 815/15/1 816/16/1
f 817/1/1 818/2/1 819/3/1 820/4/1
f 821/13/1 822/14/1 823/15/1 824/16/1
f 825/4/1 826/3/1 827/31/1 828/24/1
f 829/3/1 830/16/1 831/30/1 832/31/1
f 833/3/1 834/16/1 835/30/1 836/31/1
f 837/3/1 838/16/1 839/30/1 840/31/1
f 841/3/1 842/16/1 843/30/1 844/31/1
f 845/3/1 846/16/1 847/30/1 848/31/1
f 849/3/1 850/16/1 851/30/1 852/31/1
f 853/10/1 854/20/1 855/1/1 856/11/1
f 857/13/1 858/14/1 859/15/1 860/16/1
f 861/1/1 862/2/1 863/3/1 864/4/1
f 865/6/1 866/4/1 867/24/1 868/7/1
f 869/9/1 870/10/1 871/11/1 872/12/1
f 873/3/1 874/16/1 875/30/1 876/31/1
f 877/3/1 878/16/1 879/30/1 880/31/1
f 881/3/1 882/16/1 883/30/1 884/31/1
f 885/3/1 886/16/1 887/30/1 888/31/1
f 889/3/1 890/16/1 891/30/1 892/31/1
f 893/3/1 894/16/1 895/30/1 896/31/1
f 897/16/1 898/15/1 899/32/1 900/30/1
f 901/1/1 902/2/1 903/3/1 904/4/1
f 905/13/1 906/14/1 907/15/1 908/16/1
f 909/1/1 910/2/1 911/3/1 912/4/1
f 913/13/1 914/14/1 915/15/1 916/16/1
f 917/1/1 918/2/1 919/3/1 920/4/1
f 921/9/1 922/10/1 923/11/1 924/12/1
f 925/3/1 926/16/1 927/30/1 928/31/1
f 929/3/1 930/16/1 931/30/1 932/31/1
f 933/3/1 934/16/1 935/30/1 936/31/1
f 937/3/1 938/16/1 939/30/1 940/31/1
f 941/3/1 942/16/1 943/30/1 944/31/1
f 945/3/1 946/16/1 947/30/1 948/31/1
f 949/3/1 950/16/1 951/30/1 952/31/1
f 953/16/1 954/15/1 955/32/1 956/30/1
f 957/1/1 958/2/1 959/3/1 960/4/1
f 961/9/1 962/10/1 963/11/1 964/12/1
f 965/3/1 966/16/1 967/30/1 968/31/1
f 969/3/1 970/16/1 971/30/1 972/31/1
f 973/16/1 974/15/1 975/32/1 976/30/1
f 977/1/1 978/2/1 979/3/1 980/4/1
f 981/9/1 982/10/1 983/11/1 984/12/1
f 985/3/1 986/16/1 987/30/1 988/31/1
f 989/3/1 990/16/1 991/30/1 992/31/1
f 993/3/1 994/16/1 995/30/1 996/31/1
f 997/3/1 998/16/1 999/30/1 1000/31/1
f 1001/3/1 1002/16/1 1003/30/1 1004/31/1
f 1005/3/1 1006/16/1 1007/30/1 1008/31/1
f 1009/3/1 1010/16/1 1011/30/1 1012/31/1
f 1013/10/1 1014/20/1 1015/1/1 1016/11/1

