# Tiled2Unity generated file. Do not modify by hand.
# Wavefront file for 'Zone-3_mesh_0005.obj'

# Vertices (Count = 244)
v -26 -38 0
v -27 -38 0
v -27 -37 0
v -26 -37 0
v -37 -38 0
v -38 -38 0
v -38 -37 0
v -37 -37 0
v -25 -39 0
v -26 -39 0
v -26 -38 0
v -25 -38 0
v -28 -39 0
v -29 -39 0
v -29 -38 0
v -28 -38 0
v -31 -39 0
v -32 -39 0
v -32 -38 0
v -31 -38 0
v -34 -39 0
v -35 -39 0
v -35 -38 0
v -34 -38 0
v -19 -40 0
v -20 -40 0
v -20 -39 0
v -19 -39 0
v -33 -40 0
v -34 -40 0
v -34 -39 0
v -33 -39 0
v -36 -40 0
v -37 -40 0
v -37 -39 0
v -36 -39 0
v -22 -41 0
v -23 -41 0
v -23 -40 0
v -22 -40 0
v -35 -41 0
v -36 -41 0
v -36 -40 0
v -35 -40 0
v -16 -42 0
v -17 -42 0
v -17 -41 0
v -16 -41 0
v -20 -42 0
v -21 -42 0
v -21 -41 0
v -20 -41 0
v -23 -42 0
v -24 -42 0
v -24 -41 0
v -23 -41 0
v -26 -42 0
v -27 -42 0
v -27 -41 0
v -26 -41 0
v -29 -42 0
v -30 -42 0
v -30 -41 0
v -29 -41 0
v -30 -42 0
v -31 -42 0
v -31 -41 0
v -30 -41 0
v -31 -42 0
v -32 -42 0
v -32 -41 0
v -31 -41 0
v -24 -43 0
v -25 -43 0
v -25 -42 0
v -24 -42 0
v -28 -43 0
v -29 -43 0
v -29 -42 0
v -28 -42 0
v -29 -43 0
v -30 -43 0
v -30 -42 0
v -29 -42 0
v -30 -43 0
v -31 -43 0
v -31 -42 0
v -30 -42 0
v -31 -43 0
v -32 -43 0
v -32 -42 0
v -31 -42 0
v -32 -43 0
v -33 -43 0
v -33 -42 0
v -32 -42 0
v -34 -43 0
v -35 -43 0
v -35 -42 0
v -34 -42 0
v -20 -44 0
v -21 -44 0
v -21 -43 0
v -20 -43 0
v -21 -44 0
v -22 -44 0
v -22 -43 0
v -21 -43 0
v -22 -44 0
v -23 -44 0
v -23 -43 0
v -22 -43 0
v -23 -44 0
v -24 -44 0
v -24 -43 0
v -23 -43 0
v -24 -44 0
v -25 -44 0
v -25 -43 0
v -24 -43 0
v -25 -44 0
v -26 -44 0
v -26 -43 0
v -25 -43 0
v -26 -44 0
v -27 -44 0
v -27 -43 0
v -26 -43 0
v -27 -44 0
v -28 -44 0
v -28 -43 0
v -27 -43 0
v -28 -44 0
v -29 -44 0
v -29 -43 0
v -28 -43 0
v -29 -44 0
v -30 -44 0
v -30 -43 0
v -29 -43 0
v -30 -44 0
v -31 -44 0
v -31 -43 0
v -30 -43 0
v -31 -44 0
v -32 -44 0
v -32 -43 0
v -31 -43 0
v -32 -44 0
v -33 -44 0
v -33 -43 0
v -32 -43 0
v -34 -44 0
v -35 -44 0
v -35 -43 0
v -34 -43 0
v -35 -44 0
v -36 -44 0
v -36 -43 0
v -35 -43 0
v -21 -45 0
v -22 -45 0
v -22 -44 0
v -21 -44 0
v -22 -45 0
v -23 -45 0
v -23 -44 0
v -22 -44 0
v -23 -45 0
v -24 -45 0
v -24 -44 0
v -23 -44 0
v -24 -45 0
v -25 -45 0
v -25 -44 0
v -24 -44 0
v -25 -45 0
v -26 -45 0
v -26 -44 0
v -25 -44 0
v -26 -45 0
v -27 -45 0
v -27 -44 0
v -26 -44 0
v -28 -45 0
v -29 -45 0
v -29 -44 0
v -28 -44 0
v -29 -45 0
v -30 -45 0
v -30 -44 0
v -29 -44 0
v -30 -45 0
v -31 -45 0
v -31 -44 0
v -30 -44 0
v -31 -45 0
v -32 -45 0
v -32 -44 0
v -31 -44 0
v -32 -45 0
v -33 -45 0
v -33 -44 0
v -32 -44 0
v -33 -45 0
v -34 -45 0
v -34 -44 0
v -33 -44 0
v -34 -45 0
v -35 -45 0
v -35 -44 0
v -34 -44 0
v -27 -46 0
v -28 -46 0
v -28 -45 0
v -27 -45 0
v -28 -46 0
v -29 -46 0
v -29 -45 0
v -28 -45 0
v -30 -46 0
v -31 -46 0
v -31 -45 0
v -30 -45 0
v -31 -46 0
v -32 -46 0
v -32 -45 0
v -31 -45 0
v -32 -46 0
v -33 -46 0
v -33 -45 0
v -32 -45 0
v -33 -46 0
v -34 -46 0
v -34 -45 0
v -33 -45 0
v -34 -46 0
v -35 -46 0
v -35 -45 0
v -34 -45 0
v -33 -47 0
v -34 -47 0
v -34 -46 0
v -33 -46 0

# Texture cooridinates (Count = 8)
vt 0.6 0.4285714
vt 0.8 0.4285714
vt 0.8 0.5714285
vt 0.6 0.5714285
vt 0.2 0.1428571
vt 0.4 0.1428571
vt 0.4 0.2857143
vt 0.2 0.2857143

# Normal
vn 0 0 -1

# Mesh description
g Zone-3_mesh_0005

# Faces
f 1/1/1 2/2/1 3/3/1 4/4/1
f 5/5/1 6/6/1 7/7/1 8/8/1
f 9/5/1 10/6/1 11/7/1 12/8/1
f 13/5/1 14/6/1 15/7/1 16/8/1
f 17/5/1 18/6/1 19/7/1 20/8/1
f 21/1/1 22/2/1 23/3/1 24/4/1
f 25/1/1 26/2/1 27/3/1 28/4/1
f 29/5/1 30/6/1 31/7/1 32/8/1
f 33/5/1 34/6/1 35/7/1 36/8/1
f 37/5/1 38/6/1 39/7/1 40/8/1
f 41/5/1 42/6/1 43/7/1 44/8/1
f 45/1/1 46/2/1 47/3/1 48/4/1
f 49/5/1 50/6/1 51/7/1 52/8/1
f 53/5/1 54/6/1 55/7/1 56/8/1
f 57/5/1 58/6/1 59/7/1 60/8/1
f 61/5/1 62/6/1 63/7/1 64/8/1
f 65/5/1 66/6/1 67/7/1 68/8/1
f 69/5/1 70/6/1 71/7/1 72/8/1
f 73/5/1 74/6/1 75/7/1 76/8/1
f 77/5/1 78/6/1 79/7/1 80/8/1
f 81/5/1 82/6/1 83/7/1 84/8/1
f 85/5/1 86/6/1 87/7/1 88/8/1
f 89/5/1 90/6/1 91/7/1 92/8/1
f 93/5/1 94/6/1 95/7/1 96/8/1
f 97/5/1 98/6/1 99/7/1 100/8/1
f 101/5/1 102/6/1 103/7/1 104/8/1
f 105/5/1 106/6/1 107/7/1 108/8/1
f 109/5/1 110/6/1 111/7/1 112/8/1
f 113/5/1 114/6/1 115/7/1 116/8/1
f 117/5/1 118/6/1 119/7/1 120/8/1
f 121/5/1 122/6/1 123/7/1 124/8/1
f 125/5/1 126/6/1 127/7/1 128/8/1
f 129/5/1 130/6/1 131/7/1 132/8/1
f 133/5/1 134/6/1 135/7/1 136/8/1
f 137/5/1 138/6/1 139/7/1 140/8/1
f 141/5/1 142/6/1 143/7/1 144/8/1
f 145/5/1 146/6/1 147/7/1 148/8/1
f 149/5/1 150/6/1 151/7/1 152/8/1
f 153/5/1 154/6/1 155/7/1 156/8/1
f 157/5/1 158/6/1 159/7/1 160/8/1
f 161/5/1 162/6/1 163/7/1 164/8/1
f 165/5/1 166/6/1 167/7/1 168/8/1
f 169/5/1 170/6/1 171/7/1 172/8/1
f 173/5/1 174/6/1 175/7/1 176/8/1
f 177/5/1 178/6/1 179/7/1 180/8/1
f 181/5/1 182/6/1 183/7/1 184/8/1
f 185/5/1 186/6/1 187/7/1 188/8/1
f 189/5/1 190/6/1 191/7/1 192/8/1
f 193/5/1 194/6/1 195/7/1 196/8/1
f 197/5/1 198/6/1 199/7/1 200/8/1
f 201/5/1 202/6/1 203/7/1 204/8/1
f 205/5/1 206/6/1 207/7/1 208/8/1
f 209/5/1 210/6/1 211/7/1 212/8/1
f 213/5/1 214/6/1 215/7/1 216/8/1
f 217/5/1 218/6/1 219/7/1 220/8/1
f 221/5/1 222/6/1 223/7/1 224/8/1
f 225/5/1 226/6/1 227/7/1 228/8/1
f 229/5/1 230/6/1 231/7/1 232/8/1
f 233/5/1 234/6/1 235/7/1 236/8/1
f 237/5/1 238/6/1 239/7/1 240/8/1
f 241/5/1 242/6/1 243/7/1 244/8/1

