# Tiled2Unity generated file. Do not modify by hand.
# Wavefront file for 'Zone-3_mesh_0003.obj'

# Vertices (Count = 36)
v -43 -5 0
v -44 -5 0
v -44 -4 0
v -43 -4 0
v -44 -5 0
v -45 -5 0
v -45 -4 0
v -44 -4 0
v -45 -5 0
v -46 -5 0
v -46 -4 0
v -45 -4 0
v -42 -6 0
v -43 -6 0
v -43 -5 0
v -42 -5 0
v -45 -6 0
v -46 -6 0
v -46 -5 0
v -45 -5 0
v -47 -6 0
v -48 -6 0
v -48 -5 0
v -47 -5 0
v -47 -7 0
v -48 -7 0
v -48 -6 0
v -47 -6 0
v -43 -8 0
v -44 -8 0
v -44 -7 0
v -43 -7 0
v -47 -9 0
v -48 -9 0
v -48 -8 0
v -47 -8 0

# Texture cooridinates (Count = 13)
vt 0.04761905 0.6923077
vt 0.0952381 0.6923077
vt 0.0952381 0.8461539
vt 0.04761905 0.8461539
vt 0.1428571 0.6923077
vt 0.1428571 0.8461539
vt 0.04761905 0.5384616
vt 0.0952381 0.5384616
vt 0.1428571 0.3846154
vt 0.1904762 0.3846154
vt 0.1904762 0.5384616
vt 0.1428571 0.5384616
vt 0.1904762 0.6923077

# Normal
vn 0 0 -1

# Mesh description
g Zone-3_mesh_0003

# Faces
f 1/1/1 2/2/1 3/3/1 4/4/1
f 5/2/1 6/5/1 7/6/1 8/3/1
f 9/7/1 10/8/1 11/2/1 12/1/1
f 13/9/1 14/10/1 15/11/1 16/12/1
f 17/12/1 18/11/1 19/13/1 20/5/1
f 21/2/1 22/5/1 23/6/1 24/3/1
f 25/1/1 26/2/1 27/3/1 28/4/1
f 29/12/1 30/11/1 31/13/1 32/5/1
f 33/2/1 34/5/1 35/6/1 36/3/1

