# Tiled2Unity generated file. Do not modify by hand.
# Wavefront file for 'chasescenetiled_mesh_0002.obj'

# Vertices (Count = 92)
v -33 -21 0
v -34 -21 0
v -34 -20 0
v -33 -20 0
v -33 -22 0
v -34 -22 0
v -34 -21 0
v -33 -21 0
v -33 -23 0
v -34 -23 0
v -34 -22 0
v -33 -22 0
v -39 -24 0
v -40 -24 0
v -40 -23 0
v -39 -23 0
v -17 -25 0
v -18 -25 0
v -18 -24 0
v -17 -24 0
v -18 -25 0
v -19 -25 0
v -19 -24 0
v -18 -24 0
v -17 -26 0
v -18 -26 0
v -18 -25 0
v -17 -25 0
v -18 -26 0
v -19 -26 0
v -19 -25 0
v -18 -25 0
v -46 -27 0
v -47 -27 0
v -47 -26 0
v -46 -26 0
v -47 -27 0
v -48 -27 0
v -48 -26 0
v -47 -26 0
v -23 -28 0
v -24 -28 0
v -24 -27 0
v -23 -27 0
v -46 -28 0
v -47 -28 0
v -47 -27 0
v -46 -27 0
v -47 -28 0
v -48 -28 0
v -48 -27 0
v -47 -27 0
v -41 -29 0
v -42 -29 0
v -42 -28 0
v -41 -28 0
v -9 -30 0
v -10 -30 0
v -10 -29 0
v -9 -29 0
v -34 -30 0
v -35 -30 0
v -35 -29 0
v -34 -29 0
v -35 -30 0
v -36 -30 0
v -36 -29 0
v -35 -29 0
v -9 -31 0
v -10 -31 0
v -10 -30 0
v -9 -30 0
v -15 -31 0
v -16 -31 0
v -16 -30 0
v -15 -30 0
v -34 -31 0
v -35 -31 0
v -35 -30 0
v -34 -30 0
v -35 -31 0
v -36 -31 0
v -36 -30 0
v -35 -30 0
v -9 -32 0
v -10 -32 0
v -10 -31 0
v -9 -31 0
v -26 -32 0
v -27 -32 0
v -27 -31 0
v -26 -31 0

# Texture cooridinates (Count = 20)
vt 0.8 0.4285714
vt 1 0.4285714
vt 1 0.5714285
vt 0.8 0.5714285
vt 0.8 0.2857143
vt 1 0.2857143
vt 0.8 0.1428571
vt 1 0.1428571
vt 0.4 0.4285714
vt 0.6 0.4285714
vt 0.6 0.5714285
vt 0.4 0.5714285
vt 0 0.4285714
vt 0.2 0.4285714
vt 0.2 0.5714285
vt 0 0.5714285
vt 0 0.2857143
vt 0.2 0.2857143
vt 0.4 0.2857143
vt 0.6 0.2857143

# Normal
vn 0 0 -1

# Mesh description
g chasescenetiled_mesh_0002

# Faces
f 1/1/1 2/2/1 3/3/1 4/4/1
f 5/5/1 6/6/1 7/2/1 8/1/1
f 9/7/1 10/8/1 11/6/1 12/5/1
f 13/9/1 14/10/1 15/11/1 16/12/1
f 17/13/1 18/14/1 19/15/1 20/16/1
f 21/14/1 22/9/1 23/12/1 24/15/1
f 25/17/1 26/18/1 27/14/1 28/13/1
f 29/18/1 30/19/1 31/9/1 32/14/1
f 33/13/1 34/14/1 35/15/1 36/16/1
f 37/14/1 38/9/1 39/12/1 40/15/1
f 41/19/1 42/20/1 43/10/1 44/9/1
f 45/17/1 46/18/1 47/14/1 48/13/1
f 49/18/1 50/19/1 51/9/1 52/14/1
f 53/19/1 54/20/1 55/10/1 56/9/1
f 57/1/1 58/2/1 59/3/1 60/4/1
f 61/13/1 62/14/1 63/15/1 64/16/1
f 65/14/1 66/9/1 67/12/1 68/15/1
f 69/5/1 70/6/1 71/2/1 72/1/1
f 73/19/1 74/20/1 75/10/1 76/9/1
f 77/17/1 78/18/1 79/14/1 80/13/1
f 81/18/1 82/19/1 83/9/1 84/14/1
f 85/7/1 86/8/1 87/6/1 88/5/1
f 89/9/1 90/10/1 91/11/1 92/12/1

