# Tiled2Unity generated file. Do not modify by hand.
# Wavefront file for 'zone4_mesh_0006.obj'

# Vertices (Count = 60)
v -496 -368 0
v -512 -368 0
v -512 -352 0
v -496 -352 0
v -496 -384 0
v -512 -384 0
v -512 -368 0
v -496 -368 0
v -496 -400 0
v -512 -400 0
v -512 -384 0
v -496 -384 0
v -592 -416 0
v -608 -416 0
v -608 -400 0
v -592 -400 0
v -608 -416 0
v -624 -416 0
v -624 -400 0
v -608 -400 0
v -592 -432 0
v -608 -432 0
v -608 -416 0
v -592 -416 0
v -608 -432 0
v -624 -432 0
v -624 -416 0
v -608 -416 0
v -256 -464 0
v -272 -464 0
v -272 -448 0
v -256 -448 0
v -272 -464 0
v -288 -464 0
v -288 -448 0
v -272 -448 0
v -256 -480 0
v -272 -480 0
v -272 -464 0
v -256 -464 0
v -272 -480 0
v -288 -480 0
v -288 -464 0
v -272 -464 0
v -560 -480 0
v -576 -480 0
v -576 -464 0
v -560 -464 0
v -576 -480 0
v -592 -480 0
v -592 -464 0
v -576 -464 0
v -560 -496 0
v -576 -496 0
v -576 -480 0
v -560 -480 0
v -576 -496 0
v -592 -496 0
v -592 -480 0
v -576 -480 0

# Texture cooridinates (Count = 17)
vt 0.8 0.4285714
vt 1 0.4285714
vt 1 0.5714285
vt 0.8 0.5714285
vt 0.8 0.2857143
vt 1 0.2857143
vt 0.8 0.1428571
vt 1 0.1428571
vt 0 0.4285714
vt 0.2 0.4285714
vt 0.2 0.5714285
vt 0 0.5714285
vt 0.4 0.4285714
vt 0.4 0.5714285
vt 0 0.2857143
vt 0.2 0.2857143
vt 0.4 0.2857143

# Normal
vn 0 0 -1

# Mesh description
g zone4_mesh_0006

# Faces
f 1/1/1 2/2/1 3/3/1 4/4/1
f 5/5/1 6/6/1 7/2/1 8/1/1
f 9/7/1 10/8/1 11/6/1 12/5/1
f 13/9/1 14/10/1 15/11/1 16/12/1
f 17/10/1 18/13/1 19/14/1 20/11/1
f 21/15/1 22/16/1 23/10/1 24/9/1
f 25/16/1 26/17/1 27/13/1 28/10/1
f 29/9/1 30/10/1 31/11/1 32/12/1
f 33/10/1 34/13/1 35/14/1 36/11/1
f 37/15/1 38/16/1 39/10/1 40/9/1
f 41/16/1 42/17/1 43/13/1 44/10/1
f 45/9/1 46/10/1 47/11/1 48/12/1
f 49/10/1 50/13/1 51/14/1 52/11/1
f 53/15/1 54/16/1 55/10/1 56/9/1
f 57/16/1 58/17/1 59/13/1 60/10/1

